<?xml version="1.0" encoding="UTF-8"?>
<svg id="_レイヤー_1" data-name="レイヤー_1" xmlns="http://www.w3.org/2000/svg" version="1.1" viewBox="0 0 9 9">
  <!-- Generator: Adobe Illustrator 29.4.0, SVG Export Plug-In . SVG Version: 2.1.0 Build 152)  -->
  <path d="M2.6,7.7h4.1c.2,0,.3-.1.3-.3v-3.5c0-.2-.1-.3-.3-.3h-.3v-.9c0-1-.8-1.8-1.8-1.8s-1.8.8-1.8,1.8v.9h-.3c-.2,0-.3.1-.3.3v3.5c0,.2.1.3.3.3ZM5,5.8v.4c0,.2-.1.3-.3.3s-.3-.1-.3-.3v-.4c-.1,0-.2-.2-.2-.4,0-.3.2-.5.5-.5s.5.2.5.5,0,.3-.2.4ZM3.5,2.7c0-.6.5-1.1,1.1-1.1s1.1.5,1.1,1.1v.9h-2.3v-.9Z"/>
</svg>